<?xml version="1.0" encoding="iso-8859-1"?>
<!-- Generator: Adobe Illustrator 19.0.0, SVG Export Plug-In . SVG Version: 6.00 Build 0)  -->
<svg version="1.1" id="Layer_1" xmlns="http://www.w3.org/2000/svg" xmlns:xlink="http://www.w3.org/1999/xlink" x="0px" y="0px"
	 viewBox="0 0 512 512" style="enable-background:new 0 0 512 512;" xml:space="preserve">
<g>
	<g>
		<path d="M430.195,115.435H167.176c-46.463,0-86.329,28.157-103.55,68.393C27.173,192.166,0,224.724,0,263.666v4.027
			c0,42.156,31.853,76.987,72.82,81.528l41.206,41.263c3.893,3.893,9.144,6.08,14.649,6.08s10.771-2.401,14.663-6.293l40.748-40.977
			h193.071c41.646,0,76.004-30.988,81.213-71.239c31.336-11.548,53.63-41.491,53.63-76.785v-4.027
			C512,152.013,475.427,115.435,430.195,115.435z M417.903,267.693c0,22.341-18.404,40.088-40.746,40.088h-201.67
			c-5.506,0-10.785,2.401-14.676,6.293l-32.165,32.271l-32.163-32.111c-3.893-3.893-9.058-6.053-14.564-6.053
			c-22.343,0-40.405-18.148-40.405-40.49v-4.027c0-22.341,17.95-40.296,40.292-40.296h295.352c22.343,0,40.746,17.956,40.746,40.296
			V267.693z M453.593,234.347c-11.856-30.731-41.576-52.49-76.437-52.49H113.144c13.066-15.222,32.436-24.908,54.031-24.908h263.019
			c22.343,0,40.292,17.955,40.292,40.296v4.027h0.001C470.487,214.85,463.878,226.992,453.593,234.347z"/>
	</g>
</g>
<g>
	<g>
		<path d="M148.065,246.895h-26.292c-11.463,0-20.757,9.294-20.757,20.757s9.293,20.757,20.757,20.757h26.292
			c11.463,0,20.757-9.293,20.757-20.757S159.528,246.895,148.065,246.895z"/>
	</g>
</g>
<g>
	<g>
		<path d="M242.162,246.895h-24.908c-11.463,0-20.757,9.294-20.757,20.757s9.293,20.757,20.757,20.757h24.908
			c11.463,0,20.757-9.293,20.757-20.757S253.625,246.895,242.162,246.895z"/>
	</g>
</g>
<g>
	<g>
		<path d="M337.643,246.895h-26.292c-11.463,0-20.757,9.294-20.757,20.757s9.294,20.757,20.757,20.757h26.292
			c11.463,0,20.757-9.293,20.757-20.757S349.107,246.895,337.643,246.895z"/>
	</g>
</g>
<g>
</g>
<g>
</g>
<g>
</g>
<g>
</g>
<g>
</g>
<g>
</g>
<g>
</g>
<g>
</g>
<g>
</g>
<g>
</g>
<g>
</g>
<g>
</g>
<g>
</g>
<g>
</g>
<g>
</g>
</svg>
