<?xml version="1.0" encoding="iso-8859-1"?>
<!-- Generator: Adobe Illustrator 19.0.0, SVG Export Plug-In . SVG Version: 6.00 Build 0)  -->
<svg version="1.1" id="Layer_1" xmlns="http://www.w3.org/2000/svg" xmlns:xlink="http://www.w3.org/1999/xlink" x="0px" y="0px"
	 viewBox="0 0 512 512" style="enable-background:new 0 0 512 512;" xml:space="preserve">
<g>
	<g>
		<path d="M446.466,20.757H65.534C29.341,20.757,0,50.096,0,86.291v7.312c0,36.193,29.341,65.533,65.534,65.533h380.931
			c36.193,0,65.534-29.34,65.534-65.534v-7.31C512,50.096,482.659,20.757,446.466,20.757z M65.534,107.243
			c-7.523,0-13.642-5.665-13.642-13.189v-7.139c0-7.523,6.12-14.267,13.642-14.267h276.112c-3.788,5.189-6.078,10.406-6.078,16.758
			c0,6.876,2.693,14.378,7.059,17.837H65.534z"/>
	</g>
</g>
<g>
	<g>
		<path d="M446.466,186.811H65.534C29.341,186.811,0,216.152,0,252.347v7.308c0,36.193,29.341,65.534,65.534,65.534h380.931
			c36.193,0,65.534-29.341,65.534-65.536v-7.306C512,216.152,482.659,186.811,446.466,186.811z M460.108,259.653
			c0,7.535-6.108,13.644-13.642,13.644H65.534c-7.535,0-13.642-6.108-13.642-13.644v-7.308c0-7.535,6.108-13.644,13.642-13.644
			h380.931c7.535,0,13.642,6.108,13.642,13.644V259.653z"/>
	</g>
</g>
<g>
	<g>
		<path d="M446.466,352.865H65.534C29.341,352.865,0,382.206,0,418.401v7.308c0,36.193,29.341,65.534,65.534,65.534h380.931
			c36.193,0,65.534-29.341,65.534-65.536v-7.306C512,382.206,482.659,352.865,446.466,352.865z M460.108,425.709
			c0,7.535-6.108,13.642-13.642,13.642H65.534c-7.535,0-13.642-6.108-13.642-13.642v-7.312c0-7.535,6.108-13.642,13.642-13.642
			h380.931c7.535,0,13.642,6.108,13.642,13.642V425.709z"/>
	</g>
</g>
<g>
</g>
<g>
</g>
<g>
</g>
<g>
</g>
<g>
</g>
<g>
</g>
<g>
</g>
<g>
</g>
<g>
</g>
<g>
</g>
<g>
</g>
<g>
</g>
<g>
</g>
<g>
</g>
<g>
</g>
</svg>
